Coordinates
version=1
nRows=14
nColumns=40
inDegrees=yes

Units are S.I. units (second, meters, Newtons, ...)
Angles are in degrees.

endheader
time	pelvis_tilt	pelvis_list	pelvis_rotation	pelvis_tx	pelvis_ty	pelvis_tz	hip_flexion_r	hip_adduction_r	hip_rotation_r	knee_angle_r	knee_angle_r_beta	ankle_angle_r	subtalar_angle_r	mtp_angle_r	hip_flexion_l	hip_adduction_l	hip_rotation_l	knee_angle_l	knee_angle_l_beta	ankle_angle_l	subtalar_angle_l	mtp_angle_l	lumbar_extension	lumbar_bending	lumbar_rotation	arm_flex_r	arm_add_r	arm_rot_r	elbow_flex_r	pro_sup_r	wrist_flex_r	wrist_dev_r	arm_flex_l	arm_add_l	arm_rot_l	elbow_flex_l	pro_sup_l	wrist_flex_l	wrist_dev_l
     39.52142857	     -7.00284226	     -7.02476903	      5.14028696	      1.04859050	      0.90941578	      0.47772304	     -1.75730418	      5.30294175	    -17.86229242	      8.55984678	      8.55984678	     18.12985419	      4.95062026	     -2.61679283	     35.74388056	     -8.68640403	     -1.49745509	     20.69075073	     20.69075073	      1.93314135	     -8.92593174	      7.47563738	     -9.85399272	      6.70390811	      4.11228033	     43.48591056	    -17.31576452	     -2.07906614	     89.41063793	     44.38453801	      0.00000000	      0.00000000	    -17.06832300	     -9.34802321	     -6.62666612	     25.23985051	     46.41199289	      0.00000000	      0.00000000
     39.53285714	     -7.03033744	     -6.88147801	      4.90893429	      1.05040215	      0.90799595	      0.47538359	     -1.98855038	      4.83447894	    -17.61878505	      9.52647803	      9.52647803	     18.96300823	      4.89998021	     -1.90553239	     35.53903061	     -8.37757869	     -0.97013401	     21.61718413	     21.61718413	      0.51406569	    -10.96357577	      5.20695667	     -9.79110447	      6.45726621	      4.22019358	     43.22816970	    -16.80262812	     -2.32278948	     94.19039061	     44.29030298	      0.00000000	      0.00000000	    -17.82236249	     -9.24385765	     -6.27793456	     26.34891955	     46.31568414	      0.00000000	      0.00000000
     39.54428571	     -6.94910583	     -6.73122481	      4.71262099	      1.05219296	      0.90706375	      0.47299976	     -2.41395017	      4.40889725	    -17.34882444	     10.26707142	     10.26707142	     19.36693942	      4.69013457	     -2.00973210	     35.37670245	     -8.19981082	     -0.83540267	     22.90353304	     22.90353304	      0.40635625	    -11.74488295	      4.83395408	     -9.64836568	      6.23474831	      4.13845997	     43.66984601	    -16.02761699	     -2.17209955	     95.33014705	     44.25872944	      0.00000000	      0.00000000	    -18.09432182	     -9.05184663	     -6.13110408	     26.15661103	     46.28480029	      0.00000000	      0.00000000
     39.55571429	     -6.98931079	     -6.51131841	      4.49304890	      1.05374476	      0.90628931	      0.47047281	     -2.43715984	      3.80534184	    -16.95511469	     11.50915495	     11.50915495	     19.86589668	      4.19997006	     -1.86937213	     35.25351686	     -7.86667175	     -0.44428225	     24.00405784	     24.00405784	      0.18107588	    -13.03073794	      4.17550708	     -9.48685393	      5.95553301	      4.38349398	     43.38316565	    -15.72172029	     -2.15875477	     98.09865389	     44.22469447	      0.00000000	      0.00000000	    -18.10130611	     -8.95873683	     -5.51867235	     26.21429567	     46.17279704	      0.00000000	      0.00000000
     39.56714286	     -6.88353016	     -6.30932481	      4.31364964	      1.05523729	      0.90602094	      0.46781265	     -2.55608716	      3.20062301	    -16.68791611	     12.82256374	     12.82256374	     20.10893686	      3.76915369	     -2.15130686	     35.07334658	     -7.60623656	     -0.22385147	     25.28845094	     25.28845094	      0.57465427	    -13.80373443	      3.99200369	     -9.46371217	      5.72208193	      4.26064034	     43.52342047	    -14.99460861	     -1.90450593	     99.37022930	     44.19069222	      0.00000000	      0.00000000	    -18.08482804	     -8.69741122	     -5.30642298	     26.08983915	     46.13649590	      0.00000000	      0.00000000
     39.57857143	     -6.76392411	     -6.08530211	      4.15040357	      1.05657644	      0.90614477	      0.46497039	     -2.51586555	      2.51345360	    -16.40099195	     14.42857506	     14.42857506	     20.20946678	      3.21884949	     -2.58789279	     34.82518318	     -7.28496213	      0.04900438	     26.46522482	     26.46522482	      1.22293995	    -14.57253416	      4.06201030	     -9.50273229	      5.48059375	      4.18729845	     43.37283831	    -14.49745724	     -1.59371513	    100.84686951	     44.14859490	      0.00000000	      0.00000000	    -17.85739885	     -8.47503753	     -5.10794028	     26.04360770	     46.10640439	      0.00000000	      0.00000000
     39.59000000	     -6.39664129	     -5.93568832	      4.06015374	      1.05815445	      0.90706476	      0.46201780	     -2.93942477	      1.97910059	    -16.20671889	     15.62188673	     15.62188673	     20.04608753	      2.92563215	     -2.82582590	     34.21273545	     -7.04888777	      0.26643533	     27.45513252	     27.45513252	      1.97999458	    -15.12798402	      3.85967618	     -9.72773152	      5.33579879	      4.16540484	     42.99340558	    -14.10228269	     -1.34664449	    101.36142936	     44.12706853	      0.00000000	      0.00000000	    -17.45396490	     -8.24666345	     -5.01985570	     26.12884259	     46.09822980	      0.00000000	      0.00000000
     39.60142857	     -6.34051277	     -5.68758874	      3.88789287	      1.05912316	      0.90763883	      0.45894922	     -2.32657944	      1.08386077	    -15.93184588	     18.11355196	     18.11355196	     19.92360306	      2.17740251	     -3.69950466	     33.88755078	     -6.68397423	      0.38070798	     28.33894252	     28.33894252	      2.93935797	    -15.66250591	      4.10551050	     -9.78394760	      5.07984033	      4.03614857	     42.73156441	    -13.69527518	     -0.93451017	    103.03192919	     44.07070240	      0.00000000	      0.00000000	    -17.06966727	     -8.05561663	     -4.88398166	     26.09474545	     46.08229232	      0.00000000	      0.00000000
     39.61285714	     -6.28667995	     -5.49135942	      3.78230547	      1.06013067	      0.90875333	      0.45571926	     -1.91209416	      0.31722058	    -15.72764507	     20.05521899	     20.05521899	     18.57929388	      1.17176890	     -6.76951752	     33.52603414	     -6.30644354	      0.54166789	     29.17612907	     29.17612907	      4.91434839	    -15.76763742	      7.11087928	     -9.84577378	      4.92632698	      4.90124284	     41.02122154	    -14.66429600	     -0.95325599	    106.25800806	     44.03141684	      0.00000000	      0.00000000	    -15.77142809	     -8.02841561	     -4.33779847	     25.82099726	     46.01611799	      0.00000000	      0.00000000
     39.62428571	     -6.20810525	     -5.32431261	      3.68324348	      1.06114252	      0.90996380	      0.45247171	     -1.29587815	     -0.49998210	    -15.52777279	     22.48516432	     22.48516432	     17.81840487	      0.46632461	     -7.99077238	     32.92454261	     -6.00726559	      0.53455632	     29.56645191	     29.56645191	      5.87646203	    -15.91549170	      7.19345235	     -9.80375537	      4.79206473	      4.66303174	     40.28564259	    -14.25815089	     -0.64239758	    106.82042797	     44.02142868	      0.00000000	      0.00000000	    -15.19916192	     -7.77969619	     -4.14465827	     25.91098737	     45.99405487	      0.00000000	      0.00000000
     39.63571429	     -5.86504582	     -5.26012239	      3.60762009	      1.06233372	      0.91176070	      0.44926595	     -0.99660688	     -1.16570893	    -15.33267012	     24.81413546	     24.81413546	     16.94799365	     -0.06587766	     -8.70446174	     31.94211552	     -5.83651814	      0.46637290	     29.77855297	     29.77855297	      6.71436633	    -16.02696919	      7.06469429	    -10.05709549	      4.79964412	      4.45222624	     39.34744920	    -13.98150287	     -0.29579251	    107.08579181	     44.00518268	      0.00000000	      0.00000000	    -14.45176585	     -7.54696272	     -4.07532110	     26.20845734	     45.99504191	      0.00000000	      0.00000000
     39.64714286	     -5.94751819	     -5.14641862	      3.50988857	      1.06305648	      0.91300595	      0.44605466	      0.00613038	     -1.91108387	    -14.90215434	     27.32722460	     27.32722460	     14.41969527	     -1.92260176	    -13.35676109	     31.39217203	     -5.57182957	      0.35153842	     29.89737951	     29.89737951	      7.78414700	    -15.98102270	      8.08144312	     -9.91475179	      4.75221129	      4.85517225	     37.64039595	    -14.80035907	      0.03191272	    109.10265852	     43.98334939	      0.00000000	      0.00000000	    -13.57842147	     -7.43100164	     -4.06493686	     26.95797488	     46.00823993	      0.00000000	      0.00000000
     39.65857143	     -5.86716038	     -5.01401280	      3.39472708	      1.06386132	      0.91452493	      0.44298573	      1.02538038	     -2.76260768	    -14.64057470	     30.31336321	     30.31336321	     13.00584690	     -2.77621459	    -14.31599770	     30.50151344	     -5.36206447	      0.04467922	     29.72530474	     29.72530474	      8.45881231	    -15.79016036	      7.88311937	     -9.85889371	      4.66723713	      4.54904662	     36.45302880	    -14.48819087	      0.25462726	    108.97086822	     43.98793484	      0.00000000	      0.00000000	    -12.84324125	     -7.26085464	     -4.03319883	     27.31189805	     46.01536317	      0.00000000	      0.00000000
     39.67000000	     -5.80618590	     -5.02675981	      3.29217276	      1.06452861	      0.91596165	      0.44013249	      2.10307901	     -3.28962440	    -14.02009827	     33.08844417	     33.08844417	     10.39472221	     -4.97253941	    -17.31023920	     29.69520967	     -5.30081121	     -0.18417635	     29.60084216	     29.60084216	      9.04461170	    -15.62454456	      7.73929987	     -9.83531863	      4.72896136	      4.60924697	     34.76787786	    -14.75117561	      0.39193895	    109.49591675	     44.01269937	      0.00000000	      0.00000000	    -12.12387179	     -7.14824561	     -4.29904607	     28.47705389	     46.06756513	      0.00000000	      0.00000000
